<?xml version="1.0" encoding="utf-8"?>
<!-- Generator: Adobe Illustrator 18.0.0, SVG Export Plug-In . SVG Version: 6.00 Build 0)  -->
<!DOCTYPE svg PUBLIC "-//W3C//DTD SVG 1.1//EN" "http://www.w3.org/Graphics/SVG/1.1/DTD/svg11.dtd">
<svg version="1.1" id="svg2258" xmlns:svg="http://www.w3.org/2000/svg"
	 xmlns="http://www.w3.org/2000/svg" xmlns:xlink="http://www.w3.org/1999/xlink" x="0px" y="0px" viewBox="0 0 1020 593"
	 enable-background="new 0 0 1020 593" xml:space="preserve">
<g id="g2260">
</g>
<g>
	<g id="layer3">
		<path id="SC" fill="#BFBFBF" d="M800.5,416.9l-1.8,1l-2.6-1.3l-0.6-2.1l-1.3-3.6l-2.3-2.1l-2.6-0.6l-1.6-4.8l-2.7-6l-4.2-1.9
			l-2.1-1.9l-1.3-2.6l-2.1-1.9l-2.3-1.3l-2.3-2.9l-3.1-2.3l-4.5-1.8l-0.5-1.5l-2.4-2.9l-0.5-1.5l-3.4-5.2l-3.4,0.2l-4-2.4l-1.3-1.3
			l-0.3-1.8l0.8-1.9l2.3-1l-0.3-2.1l6.1-2.6l9.1-4.5l7.3-0.8l16.5-0.5l2.3,1.9l1.6,3.2l4.4-0.5l12.6-1.5l2.9,0.8l12.6,7.6l10.1,8.1
			l-5.4,5.5l-2.6,6.1l-0.5,6.3l-1.6,0.8l-1.1,2.7l-2.4,0.6l-2.1,3.6l-2.7,2.7l-2.3,3.4l-1.6,0.8l-3.6,3.4l-2.9,0.2l1,3.2l-5,5.5
			L800.5,416.9L800.5,416.9z"/>
		<path id="AL" fill="#BFBFBF" d="M664.9,470.7l-1.6-15.2l-2.7-18.8l0.2-14.1l0.8-31l-0.2-16.7l0.2-6.4l7.8-0.4l27.8-2.6l8.9-0.7
			l-0.1,2.2l0.2,2.1l0.6,3.4l3.4,7.9l2.4,9.9l1.5,6.1l1.6,4.8l1.5,7l2.1,6.3l2.6,3.4l0.5,3.4l1.9,0.8l0.2,2.1l-1.8,4.8l-0.5,3.2
			l-0.2,1.9l1.6,4.4l0.3,5.3l-0.8,2.4l0.6,0.8l1.5,0.8l1,2.5h-6.3l-6.8,0.6l-25.5,2.9l-10.4,1.4l-0.1,3.8l1.8,1.8l2.6,1.9l0.6,7.9
			l-5.5,2.6l-2.7-0.3l2.7-1.9v-1l-3.1-6l-2.3-0.6l-1.5,4.4l-1.3,2.7l-0.6-0.2L664.9,470.7L664.9,470.7z"/>
		<path id="NC" fill="#BFBFBF" d="M871.4,302.4l1.7,4.7l3.6,6.5l2.4,2.4l0.6,2.3l-2.4,0.2l0.8,0.6l-0.3,4.2l-2.6,1.3l-0.6,2.1
			l-1.3,2.9l-3.7,1.6l-2.4-0.3l-1.5-0.2l-1.6-1.3l0.3,1.3v1h1.9l0.8,1.3l-1.9,6.3h4.2l0.6,1.6l2.3-2.3l1.3-0.5l-1.9,3.6l-3.1,4.8
			h-1.3l-1.1-0.5l-2.7,0.6l-5.2,2.4l-6.5,5.3l-3.4,4.7l-1.9,6.5l-0.5,2.4l-4.7,0.5l-5.5,1.3l-9.9-8.2l-12.6-7.6l-2.9-0.8l-12.6,1.5
			l-4.3,0.8l-1.6-3.2l-3-2.1l-16.5,0.5l-7.3,0.8l-9.1,4.5l-6.1,2.6l-1.6,0.3l-5.8,1l-7,0.8l-6.8,0.5l0.5-4.1l1.8-1.5l2.7-0.6
			l0.6-3.7l4.2-2.7l3.9-1.5l4.2-3.6l4.4-2.1l0.6-3.1l3.9-3.9l0.6-0.2c0,0,0,1.1,0.8,1.1s1.9,0.3,1.9,0.3l2.3-3.6l2.1-0.6l2.3,0.3
			l1.6-3.6l2.9-2.6l0.5-2.1v-4l4.5,0.7l7.1-1.3l15.8-1.9l17.1-2.6l19.9-4l19.7-4.2l11.4-2.8L871.4,302.4L871.4,302.4z M875.3,335.4
			l2.6-2.5l3.2-2.6l1.5-0.6l0.2-2l-0.6-6.1l-1.5-2.3l-0.6-1.9l0.7-0.2l2.7,5.5l0.4,4.4l-0.2,3.4l-3.4,1.5l-2.8,2.4l-1.1,1.2
			L875.3,335.4L875.3,335.4z"/>
		<path id="WY" fill="#BFBFBF" d="M393.5,147.7l-10.5-0.8l-32.1-3.3l-16.2-2.1l-28.3-4.1l-19.9-3l-1.4,11.2l-3.8,24.3l-5.3,30.4
			l-1.5,10.5l-1.7,11.9l6.5,0.9l25.9,2.5l20.6,2.3l36.8,4.1l23.8,2.9l4.5-44.2l1.4-25.4L393.5,147.7L393.5,147.7z"/>
		<path id="ID" fill="#BFBFBF" d="M201.4,184.9c-22.6-4.3-14.1-2.8-21.1-4.4l4.4-17.5l4.3-17.7l1.4-4.2l2.5-5.9l-1.3-2.3l-2.5,0.1
			l-0.8-1l0.5-1.1l0.3-3.1l4.5-5.5l1.8-0.5l1.1-1.1l0.6-3.2l0.9-0.7l3.9-5.8l3.9-4.3l0.2-3.8l-3.4-2.6l-1.3-4.4l0.4-9.7l3.7-16.5
			l4.5-20.8l3.8-13.5l0.8-3.8l13,2.5l-4.2,21.5l2.9,7.7l-1.1,4.6l2,4.6l3.2,1.7l4.5,9.8l2.7,3.8l0.6,1.1l3.4,1.1l0.5,2.5l-6.9,16.8
			l0.3,3.3l2.7,2.9l1.9,0.5l4.8-3.6l0.4-0.5l0.2,0.8l0.3,4.1l2.6,12.9l3.5,2.7l0.4,0.8l2.1,2.4l-0.8,2.8l0.7,3.8l1.9,0.9l2.1-1.6
			l2.6-0.5l3.4,1.6l2.5-0.6l3.8-0.2l4,1.6l2.7-0.3l0.9-2.3l2.5-1.6l0.7,1.7l0.6,2.2l2.3,2.5l-3.8,24l-5.1,29l-4.2-0.3l-8.2-1.5
			l-9.8-1.8l-12.2-2.4l-12.5-2.5l-8.5-1.8l-9.3-1.7L201.4,184.9L201.4,184.9z"/>
		<path id="TX" fill="#BFBFBF" d="M396.3,337.3l22.7,1.1l31.1,1.1l-2.3,23.5l-0.3,18.2l0.1,2.1l4.3,3.8l1.7,0.8l1.8,0.3l0.7-1.3
			l0.9,0.9l1.7,0.5l1.6-0.7l1.1,0.4l-0.3,3.4l4.3,1l2.7,0.8l4,0.5l2.2,1.8l3.2-1.6l2.8,0.4l2,2.8l1.1,0.3l-0.2,2l3.1,1.2l2.8-1.8
			l1.5,0.4l2.4,0.2l0.4,1.9l4.6,2l2.7-0.2l2-4.1h0.3l1.1,1.9l4.4,1l3.3,1.2l3.3,0.8l2.1-0.8l0.8-2.5h3.7l1.9,0.8l3.1-1.6h0.7
			l0.4,1.1h4.3l2.4-1.3l1.7,0.3l1.4,1.9l2.9,1.7l3.5,1.1l2.7,1.4l2.4,1.6l3.3-0.9l1.9,1l0.5,10.1l0.3,9.7l0.7,9.5l0.5,4l2.7,4.6
			l1.1,4.1l3.9,6.3l0.5,2.9l0.5,1l-0.7,7.5l-2.7,4.4l1,2.9l-0.4,2.5l-0.8,7.3l-1.4,2.7l0.6,4.4l-5.7,1.6l-9.9,4.5l-1,1.9l-2.6,1.9
			l-2.1,1.5l-1.3,0.8l-5.7,5.3l-2.7,2.1l-5.3,3.2l-5.7,2.4l-6.3,3.4l-1.8,1.5l-5.8,3.6l-3.4,0.6l-3.9,5.5l-4,0.3l-1,1.9l2.3,1.9
			l-1.5,5.5l-1.3,4.5l-1.1,3.9l-0.8,4.5l0.8,2.4l1.8,7l1,6.1l1.8,2.7l-1,1.5l-3.1,1.9l-5.7-3.9l-5.5-1.1l-1.3,0.5l-3.2-0.6l-4.2-3.1
			l-5.2-1.1l-7.6-3.4L457,559l-1.3-6.5l-3.2-1.9l-0.6-2.3l0.6-0.6l0.3-3.4l-1.3-0.6l-0.6-1l1.3-4.4l-1.6-2.3l-3.2-1.3l-3.4-4.4
			l-3.6-6.6l-4.2-2.6l0.2-1.9l-5.3-12.3l-0.8-4.2l-1.8-1.9l-0.2-1.5l-6-5.3l-2.6-3.1v-1.1l-2.6-2.1l-6.8-1.1l-7.4-0.6l-3.1-2.3
			l-4.5,1.8l-3.6,1.5l-2.3,3.2l-1,3.7l-4.4,6.1l-2.4,2.4l-2.6-1l-1.8-1.1l-1.9-0.6l-3.9-2.3v-0.6l-1.8-1.9l-5.2-2.1l-7.4-7.8
			l-2.3-4.7v-8.1l-3.2-6.5l-0.5-2.7l-1.6-1l-1.1-2.1l-5-2.1l-1.3-1.6l-7.1-7.9l-1.3-3.2l-4.7-2.3l-1.5-4.4l-2.6-2.9L323,435
			l-0.6-4.7l8,0.7l29,2.7l29,1.6l2.3-23.8l3.9-55.6l1.6-18.7l1.4,0 M496.5,571.2l-0.6-7.1l-2.7-7.2l-0.6-7l1.5-8.2l3.3-6.9l3.5-5.4
			l3.2-3.6l0.6,0.2l-4.8,6.6l-4.4,6.5l-2,6.6l-0.3,5.2l0.9,6.1l2.6,7.2l0.5,5.2l0.2,1.5L496.5,571.2L496.5,571.2z"/>
		<path id="UT" fill="#BFBFBF" d="M292.2,313.2l-24.6-3.5l-26.6-4.9l-33.8-6l1.6-9.2l3.2-15.2l3.3-16.6l2.2-13.6l1.9-8.9l3.8-20.5
			l3.5-17.5l1.1-5.6l12.7,2.3l12,2.1l10.3,1.8l8.3,1.4l3.7,0.5l-1.5,10.6l-2.3,13.2l7.8,0.9l16.4,1.8l8.2,0.9l-2.1,22l-3.2,22.6
			l-3.8,27.8l-1.7,11.1L292.2,313.2L292.2,313.2z"/>
		<path id="ND" fill="#BFBFBF" d="M510.6,131.6l-0.4-7.5l-2-7.3l-1.8-13.6l-0.5-9.8l-2-3.1l-1.6-5.4V74.5l0.7-3.9l-2.1-5.5
			l-28.4-0.6L453.9,64l-26.5-1.3l-24.9-1.9L401.2,75l-1.4,15.1l-2.3,24.9l-0.5,11l56.8,3.8C453.9,129.8,510.6,131.6,510.6,131.6z"/>
		<path id="SD" fill="#BFBFBF" d="M512.1,207.1l-1-1.1l-1.5-3.6l1.8-3.7l1.1-5.6l-2.6-2.1l-0.3-2.7l0.6-3l2.1-0.8l0.3-5.7l-0.1-30.1
			l-0.6-3l-4.1-3.6l-1-2v-1.9l1.9-1.3l1.5-1.9l0.2-2.7l-57.4-1.6l-56.2-3.9l-0.8,5.3l-1.6,15.9l-1.3,17.9l-1.6,24.6l16,1l19.6,1.1
			l18,1.3l23.8,1.3l10.7-0.8l2.9,2.3l4.3,3l1,0.8l3.5-0.9l4-0.3l2.7-0.1l3.1,1.2l4.5,1.4l3.1,1.8l0.6,1.9l0.9,1.9l0.7-0.5
			L512.1,207.1L512.1,207.1z"/>
		<path id="NE" fill="#BFBFBF" d="M523.5,250.9l1.4,2.7l0.1,2.1l2.4,3.7l2.7,3.2h-5l-43.5-0.9l-40.8-0.9l-21.2-1l1.1-21.3l-33.4-2.7
			l4.3-44l15.5,1l20.1,1.1l17.8,1.1l23.8,1.1l10.7-0.5l2.1,2.3l4.8,3l1.1,0.9l4.3-1.4l3.9-0.5l2.7-0.2l1.8,1.4l5,1.6l3,1.6l0.5,1.6
			l0.9,2.1h1.8l0.8,0l1,5.2l2.7,8l1.2,4.6l2.1,3.8l0.5,4.9l1.4,4.3l0.5,6.5"/>
		<path id="MS" fill="#BFBFBF" d="M663.8,470.9l-0.3,1.3h-5.2l-1.5-0.8l-2.1-0.3l-6.8,1.9l-1.8-0.8l-2.6,4.2l-1.1,0.8l-1.1-2.5
			l-1.1-3.9l-3.4-3.2l1.1-7.5l-0.7-0.9l-1.8,0.2l-8.2,0.7l-24.2,0.7l-0.5-1.6l0.7-8l3.4-6.2l5.3-9.1l-0.9-2.1h1.1l0.7-3.2l-2.3-1.8
			l0.2-1.8l-2.1-4.6l-0.3-5.3l1.4-2.7l-0.4-4.3l-1.4-3l1.4-1.4l-1.4-2.1l0.5-1.8l0.9-6.2l3-2.7l-0.7-2.1l3.7-5.3l2.7-0.9V382
			l-0.7-1.4l2.7-5.3l2.7-1.1l0.1-3.4l8.7-0.1l24.1-1.9l4.6-0.2l0,6.4l0.2,16.7l-0.8,31l-0.2,14.1l2.7,18.8L663.8,470.9L663.8,470.9z
			"/>
		<path id="IN" fill="#BFBFBF" d="M657.7,304.8l0.1-2.9l0.5-4.5l2.3-2.9l1.8-3.9l2.6-4.2l-0.5-5.8l-1.8-2.7l-0.3-3.2l0.8-5.5l-0.5-7
			l-1.3-16l-1.3-15.4l-1-11.7l3.1,0.9l1.5,1l1.1-0.3l2.1-1.9l2.8-1.6l5.1-0.2l22-2.3l5.6-0.5l1.5,16l4.3,36.8l0.6,5.8l-0.4,2.3
			l1.2,1.8l0.1,1.4l-2.5,1.6l-3.5,1.6l-3.2,0.6l-0.6,4.9l-4.6,3.3l-2.8,4l0.3,2.4l-0.6,1.5h-3.3l-1.6-1.6l-2.5,1.3L682,299l0.2,3.1
			l-1.2,0.3l-0.5-1l-2.2-1.5l-3.3,1.3l-1.6,3l-1.4-0.8l-1.5-1.6l-4.5,0.5l-5.6,1L657.7,304.8L657.7,304.8z"/>
		<path id="OK" fill="#BFBFBF" d="M414.6,326.5l-10.7-0.5l-6.4-0.5l0.3,0.2l-0.7,10.4l22,1.4l32.1,1.3l-2.3,24.4l-0.5,17.8l0.2,1.6
			l4.3,3.7l2.1,1.1l0.7-0.2l0.7-2.1l1.4,1.8h2.1v-1.4l2.7,1.4L462,391l4.1,0.2l2.5,1.1l4.1,0.7l2.5,1.8l2.3-2.1l3.4,0.7l2.5,3.4h0.9
			v2.3l2.3,0.7l2.3-2.3l1.8,0.7h2.5l0.9,2.5l4.8,1.8l1.4-0.7l1.8-4.1h1.1l1.1,2.1l4.1,0.7l3.7,1.4l3,0.9l1.8-0.9l0.7-2.5h4.3
			l2.1,0.9l2.7-2.1h1.1l0.7,1.6h4.1l1.6-2.1l1.8,0.5l2.1,2.5l3.2,1.8l3.2,0.9l1.9,1.1l-0.4-37.2l-1.4-11l-0.2-8.9l-1.4-6.5l-0.8-7.2
			l-0.1-3.8l-12.1,0.3l-46.4-0.5l-45-2.1L414.6,326.5L414.6,326.5z"/>
		<path id="KS" fill="#BFBFBF" d="M542.7,329l-12.6,0.2l-46.1-0.5l-44.6-2.1l-24.6-1.3l4.1-64.7l21.8,0.8l40.5,1.4l44.1,0.5h5.1
			l3.2,3.2l2.8,0.2l0.9,1.1v2l-1.8,1.6l-0.5,2.6l2.2,3.6l2.5,3.1l2.5,2l1.1,11.2L542.7,329L542.7,329z"/>
		<path id="VA" fill="#BFBFBF" d="M868.2,273.2l-0.1-1.9l6.5-2.5l-0.8,3.2l-2.9,3.8l-0.4,4.6l0.5,3.4l-1.8,5l-2.2,1.9l-1.5-4.6
			l0.4-5.4l1.6-4.2L868.2,273.2L868.2,273.2z M870.5,301.5L812.3,314l-37.4,5.3l-6.7-0.4l-2.6,1.9l-7.3,0.2l-8.4,1l-8.9,1l8.5-4.9
			l0-2.1l1.5-2.1l10.6-11.5l3.9,4.5l3.8,1l2.5-1.1l2.2-1.3l2.5,1.3l3.9-1.4l1.9-4.6l2.6,0.5l2.9-2.1l1.8,0.5l2.8-3.7l0.3-2.1l-1-1.3
			l1-1.9l5.3-12.3l0.6-5.7l1.2-0.5l2.2,2.4l3.9-0.3l1.9-7.6l2.8-0.6l1-2.7l2.6-2.3l1.3-2.3l1.5-3.4l0.1-5.1l9.8,3.8
			c0.7,0.3,0.7-4.8,0.7-4.8l4.1,1.4l-0.5,2.6l8.2,2.9l1.3,1.8l-0.9,3.7l-1.3,1.3l-0.5,1.7l0.5,2.4l2,1.3l3.9,1.4l2.9,1l4.9,0.9
			l2.2,2.1l3.2,0.4l0.9,1.2l-0.4,4.7l1.4,1.1l-0.5,1.9l1.2,0.8l-0.2,1.4l-2.7-0.1l0.1,1.6l2.3,1.5l0.1,1.4l1.8,1.8l0.5,2.5l-2.6,1.4
			l1.6,1.5l5.8-1.7L870.5,301.5L870.5,301.5z"/>
		<path id="FL" fill="#BFBFBF" d="M794.7,449.4l2.3,7.3l3.7,9.7l5.3,9.4l3.7,6.3l4.8,5.5l4,3.7l1.6,2.9l-1.1,1.3l-0.8,1.3l2.9,7.4
			l2.9,2.9l2.6,5.3l3.6,5.8l4.5,8.2l1.3,7.6l0.5,12l0.6,1.8l-0.3,3.4l-2.4,1.3l0.3,1.9l-0.6,1.9l0.3,2.4l0.5,1.9l-2.7,3.2l-3.1,1.5
			l-3.9,0.2l-1.5,1.6l-2.4,1l-1.3-0.5l-1.1-1l-0.3-2.9l-0.8-3.4l-3.4-5.2l-3.6-2.3l-3.9-0.3l-0.8,1.3l-3.1-4.4l-0.6-3.6l-2.6-4
			l-1.8-1.1l-1.6,2.1l-1.8-0.3l-2.1-5l-2.9-3.9l-2.9-5.3l-2.6-3.1l-3.6-3.7l2.1-2.4l3.2-5.5l-0.2-1.6l-4.5-1l-1.6,0.6l0.3,0.6l2.6,1
			l-1.5,4.5l-0.8,0.5l-1.8-4l-1.3-4.8l-0.3-2.7l1.5-4.7v-9.5l-3.1-3.7l-1.3-3.1l-5.2-1.3l-1.9-0.6l-1.6-2.6l-3.4-1.6l-1.1-3.4
			l-2.7-1l-2.4-3.7l-4.2-1.5l-2.9-1.5h-2.6l-4,0.8l-0.2,1.9l0.8,1l-0.5,1.1l-3.1-0.2l-3.7,3.6l-3.6,1.9h-3.9l-3.2,1.3l-0.3-2.7
			l-1.6-1.9l-2.9-1.1l-1.6-1.5l-8.1-3.9l-7.6-1.8l-4.4,0.6l-6,0.5l-6,2.1l-3.5,0.6l-0.2-8l-2.6-1.9l-1.8-1.8l0.3-3.1l10.2-1.3
			l25.5-2.9l6.8-0.6l5.4,0.3l2.6,3.9l1.5,1.5l8.1,0.5l10.8-0.6l21.5-1.3l5.4-0.7l4.6,0l0.2,2.9l3.8,0.8l0.3-4.8l-1.6-4.5l1-0.7
			l5.1,0.5L794.7,449.4L794.7,449.4z M807.2,581.8l2.4-0.6l1.3-0.2l1.5-2.3l2.3-1.6l1.3,0.5l1.7,0.3l0.4,1.1l-3.5,1.2l-4.2,1.5
			l-2.3,1.2L807.2,581.8L807.2,581.8z M820.7,576.8l1.2,1.1l2.7-2.1l5.3-4.2l3.7-3.9l2.5-6.6l1-1.7l0.2-3.4l-0.7,0.5l-1,2.8
			l-1.5,4.6l-3.2,5.3l-4.4,4.2l-3.4,1.9L820.7,576.8L820.7,576.8z"/>
		<path id="AZ" fill="#BFBFBF" d="M177,391.4l-2.6,2.2l-0.3,1.5l0.5,1l18.9,10.7l12.1,7.6l14.7,8.6l16.8,10l12.3,2.4l25.1,2.7
			l2.5-12.5l3.8-27.2l7-52.9l4.3-31l-24.6-3.7l-27.2-4.6l-33.4-6.3l-2.9,18.1l-0.5,0.5l-1.7,2.6l-2.5-0.1l-1.3-2.7l-2.7-0.3
			l-0.9-1.1h-0.9l-0.9,0.6l-1.9,1l-0.1,7l-0.2,1.7l-0.6,12.6l-1.5,2.2l-0.6,3.3l2.7,4.9l1.3,5.8l0.8,1l1,0.6l-0.1,2.3l-1.6,1.4
			l-3.4,1.7l-1.9,1.9l-1.5,3.7l-0.6,4.9l-2.9,2.7l-2.1,0.7l-0.1,5.8l-0.5,1.7l0.5,0.8l3.7,0.6l-0.6,2.7l-1.5,2.2L177,391.4
			L177,391.4z"/>
	</g>
	<g id="layer2">
		<path id="RI" fill="#BFBFBF" d="M913.3,183.7l-0.5-4.2l-0.8-4.4l-1.7-5.9l5.7-1.5l1.6,1.1l3.4,4.4l2.9,4.4l-2.9,1.5l-1.3-0.2
			l-1.1,1.8l-2.4,1.9L913.3,183.7L913.3,183.7z"/>
		<path id="CT" fill="#BFBFBF" d="M912.5,184l-0.6-4.2l-0.8-4.4l-1.6-6l-4.2,0.9l-21.8,4.8l0.6,3.3l1.5,7.3v8.1l-1.1,2.3l1.8,2.1
			l5-3.4l3.6-3.2l1.9-2.1l0.8,0.6l2.7-1.5l5.2-1.1L912.5,184L912.5,184z"/>
		<path id="MA" fill="#BFBFBF" d="M939.2,177.8l2.2-0.7l0.5-1.7l1,0.1l1,2.3l-1.3,0.5l-3.9,0.1L939.2,177.8L939.2,177.8z
			 M929.9,178.6l2.3-2.6h1.6l1.8,1.5l-2.4,1l-2.2,1L929.9,178.6L929.9,178.6z M895.1,156.6l17.5-4.2l2.3-0.6l2.1-3.2l3.7-1.7
			l2.9,4.4l-2.4,5.2l-0.3,1.5l1.9,2.6l1.1-0.8h1.8l2.3,2.6l3.9,6l3.6,0.5l2.3-1l1.8-1.8l-0.8-2.7l-2.1-1.6l-1.5,0.8l-1-1.3l0.5-0.5
			l2.1-0.2l1.8,0.8l1.9,2.4l1,2.9l0.3,2.4l-4.2,1.5l-3.9,1.9l-3.9,4.5l-1.9,1.5v-1l2.4-1.5l0.5-1.8l-0.8-3.1l-2.9,1.5l-0.8,1.5
			l0.5,2.3l-2.1,1l-2.7-4.5l-3.4-4.4l-2.1-1.8l-6.5,1.9l-5.1,1.1l-21.8,4.8l-0.4-4.9l0.6-10.6l5.2-0.9L895.1,156.6L895.1,156.6z"/>
		<path id="ME" fill="#BFBFBF" d="M962.5,81.2l1.9,2.1l2.3,3.7V89l-2.1,4.7l-1.9,0.6l-3.4,3.1l-4.8,5.5c0,0-0.6,0-1.3,0
			c-0.6,0-1-2.1-1-2.1l-1.8,0.2l-1,1.5l-2.4,1.5l-1,1.5l1.6,1.5l-0.5,0.6l-0.5,2.7l-1.9-0.2v-1.6l-0.3-1.3l-1.5,0.3l-1.8-3.2
			l-2.1,1.3l1.3,1.5l0.3,1.1l-0.8,1.3l0.3,3.1l0.2,1.6l-1.6,2.6l-2.9,0.5l-0.3,2.9l-5.3,3.1l-1.3,0.5l-1.6-1.5l-3.1,3.6l1,3.2
			l-1.5,1.3l-0.2,4.4l-1.1,6.3l-2.5-1.2l-0.5-3.1l-3.9-1.1l-0.3-2.7l-7.3-23.4l-4.2-13.6l1.4-0.1l1.5,0.4v-2.6l0.8-5.5l2.6-4.7
			l1.5-4l-1.9-2.4v-6l0.8-1l0.8-2.7l-0.2-1.5l-0.2-4.8l1.8-4.8l2.9-8.9l2.1-4.2h1.3l1.3,0.2v1.1l1.3,2.3l2.7,0.6l0.8-0.8v-1l4-2.9
			l1.8-1.8l1.5,0.2l6,2.4l1.9,1l9.1,29.9h6l0.8,1.9l0.2,4.8l2.9,2.3h0.8l0.2-0.5l-0.5-1.1L962.5,81.2L962.5,81.2z M941.6,111.4
			l1.5-1.5l1.4,1.1l0.6,2.4l-1.7,0.9C943.3,114.2,941.6,111.4,941.6,111.4z M948.3,105.5l1.8,1.9c0,0,1.3,0.1,1.3-0.2
			c0-0.3,0.2-2,0.2-2l0.9-0.8l-0.8-1.8l-2,0.7C949.6,103.2,948.3,105.5,948.3,105.5z"/>
		<path id="VT" fill="#BFBFBF" d="M883.6,157.6l-0.8-5.7l-2.4-10l-0.6-0.3l-2.9-1.3l0.8-2.9l-0.8-2.1l-2.7-4.6l1-3.9l-0.8-5.2
			l-2.4-6.5l-0.8-4.9l26.2-6.7l0.3,5.8l1.9,2.7v4l-3.7,4l-2.6,1.1v1.1l1.1,1.8v8.6l-0.8,9.2l-0.2,4.8l1,1.3l-0.2,4.5l-0.5,1.8
			l0.7,1.6l-7,1.4L883.6,157.6z"/>
		<path id="NY" fill="#BFBFBF" d="M867.9,193.3l-1.1-1l-2.6-0.2l-2.3-1.9l-1.6-6.1l-3.5,0.1l-2.4-2.7l-19.4,4.4l-43,8.7l-7.5,1.2
			l-0.7-6.5l1.4-1.1l1.3-1.1l1-1.6l1.8-1.1l1.9-1.8l0.5-1.6l2.1-2.7l1.1-1l-0.2-1l-1.3-3.1l-1.8-0.2l-1.9-6.1l2.9-1.8l4.4-1.5l4-1.3
			l3.2-0.5l6.3-0.2l1.9,1.3l1.6,0.2l2.1-1.3l2.6-1.1l5.2-0.5l2.1-1.8l1.8-3.2l1.6-1.9h2.1l1.9-1.1l0.2-2.3l-1.5-2.1l-0.3-1.5
			l1.1-2.1v-1.5h-1.8l-1.8-0.8l-0.8-1.1l-0.2-2.6l5.8-5.5l0.6-0.8l1.5-2.9l2.9-4.5l2.7-3.7l2.1-2.4l2.4-1.8l3.1-1.2l5.5-1.3l3.2,0.2
			l4.5-1.5l7.6-2.1l0.5,5l2.4,6.5l0.8,5.2l-1,3.9l2.6,4.5l0.8,2.1l-0.8,2.9l2.9,1.3l0.6,0.3l3.1,11l-0.5,5.1l-0.5,10.8l0.8,5.5
			l0.8,3.6l1.5,7.3v8.1l-1.1,2.3l1.8,2l0.8,1.7l-1.9,1.8l0.3,1.3l1.3-0.3l1.5-1.3l2.3-2.6l1.1-0.6l1.6,0.6l2.3,0.2l7.9-3.9l2.9-2.7
			l1.3-1.5l4.2,1.6l-3.4,3.6l-3.9,2.9l-7.1,5.3l-2.6,1l-5.8,1.9l-4,1.1l-1.2-0.5l-0.2-3.7l0.5-2.7l-0.2-2.1l-2.8-1.7l-4.5-1
			l-3.9-1.1L867.9,193.3L867.9,193.3z"/>
		<path id="NJ" fill="#BFBFBF" d="M867.4,194.2l-2.1,2.4v3.1l-1.9,3.1l-0.2,1.6l1.3,1.3l-0.2,2.4l-2.3,1.1l0.8,2.7l0.2,1.1l2.7,0.3
			l1,2.6l3.6,2.4l2.4,1.6v0.8l-3.2,3.1l-1.6,2.3l-1.5,2.7l-2.3,1.3L863,231l-0.2,1.2l-0.6,2.6l1.1,2.2l3.2,2.9l4.8,2.3l4,0.6
			l0.2,1.5l-0.8,1l0.3,2.7h0.8l2.1-2.4l0.8-4.8l2.7-4l3.1-6.5l1.1-5.5l-0.6-1.1l-0.2-9.4l-1.6-3.4l-1.1,0.8l-2.7,0.3l-0.5-0.5l1.1-1
			l2.1-1.9l0.1-1.1l-0.4-3.4l0.5-2.7l-0.2-2.1l-2.6-1.1l-4.5-1l-3.9-1.1L867.4,194.2L867.4,194.2z"/>
		<path id="PA" fill="#BFBFBF" d="M861.5,230.4l1.1-0.6l2.3-0.6l1.5-2.7l1.6-2.3l3.2-3.1v-0.8l-2.4-1.6l-3.6-2.4l-1-2.6l-2.7-0.3
			l-0.2-1.1l-0.8-2.7l2.3-1.1l0.2-2.4l-1.3-1.3l0.2-1.6l1.9-3.1v-3.1l2.3-2.4l0.2-1.1l-2.6-0.2l-2.3-1.9l-2.4-5.3l-3-0.9l-2.3-2.1
			l-18.6,4l-43,8.7l-8.9,1.5l-0.5-7.1l-5.5,5.6l-1.3,0.5l-4.2,3l2.9,19.1l2.5,9.7l3.6,19.3l3.3-0.6l11.9-1.5l37.9-7.7l14.9-2.8
			l8.3-1.6l0.3-0.2l2.1-1.6L861.5,230.4L861.5,230.4z"/>
		<path id="DE" fill="#BFBFBF" d="M861.6,234.3l0.6-2.1l0-1.2l-1.3-0.1l-2.1,1.6l-1.5,1.5l1.5,4.2l2.3,5.7l2.1,9.7l1.6,6.3l5-0.2
			l6.1-1.2l-2.3-7.4l-1,0.5l-3.6-2.4l-1.8-4.7l-1.9-3.6l-2.3-1l-2.1-3.6L861.6,234.3L861.6,234.3z"/>
		<path id="MD" fill="#BFBFBF" d="M876.2,259.2l-6.1,1.3l-5.8,0.2l-1.8-7.1l-2.1-9.7l-2.3-5.7l-1.3-4.4l-7.5,1.6l-14.9,2.8
			l-37.5,7.6l1.1,5l1,5.7l0.3-0.3l2.1-2.4l2.3-2.6l2.4-0.6l1.5-1.5l1.8-2.6l1.3,0.6l2.9-0.3l2.6-2.1l2-1.5l1.8-0.5l1.6,1.1l2.9,1.5
			l1.9,1.8l1.2,1.5l4.1,1.7v2.9l5.5,1.3l1.1,0.5l1.4-2l2.9,2l-1.3,2.5l-0.8,4l-1.8,2.6v2.1l0.6,1.8l5.1,1.4l4.3-0.1l3.1,1l2.1,0.3
			l1-2.1l-1.5-2.1v-1.8l-2.4-2.1l-2.1-5.5l1.3-5.3l-0.2-2.1l-1.3-1.3c0,0,1.5-1.6,1.5-2.3c0-0.6,0.5-2.1,0.5-2.1l1.9-1.3l1.9-1.6
			l0.5,1l-1.5,1.6l-1.3,3.7l0.3,1.1l1.8,0.3l0.5,5.5l-2.1,1l0.3,3.6l0.5-0.2l1.1-1.9l1.6,1.8l-1.6,1.3l-0.3,3.4l2.6,3.4l3.9,0.5
			l1.6-0.8l3.2,4.2l1.4,0.5l6.7-2.8l2-4L876.2,259.2L876.2,259.2z M859.6,268.2l1.1,2.5l0.2,1.8l1.1,1.9c0,0,0.9-0.9,0.9-1.2
			s-0.7-3.1-0.7-3.1l-0.7-2.3L859.6,268.2L859.6,268.2z"/>
		<path id="MI" fill="#BFBFBF" d="M620.9,86l1.8-2.1l2.2-0.8l5.4-3.9l2.3-0.6l0.5,0.5l-5.1,5.1l-3.3,1.9l-2.1,0.9L620.9,86L620.9,86
			z M707.1,118.1l0.6,2.5l3.2,0.2l1.3-1.2c0,0-0.1-1.5-0.4-1.6c-0.3-0.2-1.6-1.9-1.6-1.9l-2.2,0.2l-1.6,0.2l-0.3,1.1L707.1,118.1
			L707.1,118.1z M737.1,181.2l-3.2-8.2l-2.3-9.1l-2.4-3.2l-2.6-1.8L725,160l-3.9,1.8l-1.9,5l-2.7,3.7l-1.1,0.6l-1.5-0.6
			c0,0-2.6-1.5-2.4-2.1c0.2-0.6,0.5-5,0.5-5l3.4-1.3l0.8-3.4l0.6-2.6l2.4-1.6l-0.3-10l-1.6-2.3l-1.3-0.8l-0.8-2.1l0.8-0.8l1.6,0.3
			l0.2-1.6l-2.4-2.3l-1.3-2.6h-2.6l-4.5-1.5l-5.5-3.4h-2.7l-0.6,0.6l-1-0.5l-3.1-2.3l-2.9,1.8l-2.9,2.3l0.3,3.6l1,0.3l2.1,0.5
			l0.5,0.8l-2.6,0.8l-2.6,0.3l-1.5,1.8l-0.3,2.1l0.3,1.6l0.3,5.5l-3.6,2.1l-0.6-0.2v-4.2l1.3-2.4l0.6-2.4l-0.8-0.8l-1.9,0.8l-1,4.2
			l-2.7,1.1l-1.8,1.9l-0.2,1l0.6,0.8l-0.6,2.6l-2.3,0.5v1.1l0.8,2.4l-1.1,6.1l-1.6,4l0.6,4.7l0.5,1.1l-0.8,2.4l-0.3,0.8l-0.3,2.7
			l3.6,6l2.9,6.5l1.5,4.8l-0.8,4.7l-1,6l-2.4,5.2l-0.3,2.7l-3.3,3.1l4.4-0.2l21.4-2.3l7.3-1l0.1,1.7l6.9-1.2l10.3-1.5l3.9-0.5
			l0.1-0.6l0.2-1.5l2.1-3.7l2-1.7l-0.2-5.1l1.6-1.6l1.1-0.3l0.2-3.6l1.5-3l1.1,0.6l0.2,0.6l0.8,0.2l1.9-1L737.1,181.2L737.1,181.2z
			 M606.8,115.1l0.7-0.6l2.7-0.8l3.6-2.3v-1l0.6-0.6l6-1l2.4-1.9l4.4-2.1l0.2-1.3l1.9-2.9l1.8-0.8l1.3-1.8l2.3-2.3l4.4-2.4l4.7-0.5
			l1.1,1.1l-0.3,1l-3.7,1l-1.5,3.1l-2.3,0.8l-0.5,2.4l-2.4,3.2l-0.3,2.6l0.8,0.5l1-1.1l3.6-2.9l1.3,1.3h2.3l3.2,1l1.5,1.1l1.5,3.1
			l2.7,2.7l3.9-0.2l1.5-1l1.6,1.3l1.6,0.5l1.3-0.8h1.1l1.6-1l4-3.6l3.4-1.1l6.6-0.3l4.5-1.9l2.6-1.3l1.5,0.2v5.7l0.5,0.3l2.9,0.8
			l1.9-0.5l6.1-1.6l1.1-1.1l1.5,0.5v7l3.2,3.1l1.3,0.6l1.3,1l-1.3,0.3l-0.8-0.3l-3.7-0.5l-2.1,0.6l-2.3-0.2l-3.2,1.5h-1.8l-5.8-1.3
			l-5.2,0.2l-1.9,2.6l-7,0.6l-2.4,0.8l-1.1,3.1l-1.3,1.1l-0.5-0.2l-1.5-1.6l-4.5,2.4h-0.6l-1.1-1.6l-0.8,0.2l-1.9,4.4l-1,4l-3.2,7
			l-1.2-1l-1.4-1l-1.9-10.3l-3.5-1.4l-2.1-2.3l-12.1-2.7l-2.9-1l-8.2-2.2l-7.9-1.1L606.8,115.1L606.8,115.1z"/>
		<path id="WA" fill="#BFBFBF" d="M132.8,10.3l4.4,1.5l9.7,2.7l8.6,1.9l20,5.7l23,5.7l15.2,3.4l-1,3.9l-4.1,13.8l-4.5,20.8
			l-3.2,16.1l-0.4,9.4l-13.2-3.9l-15.6-3.4l-13.7,0.6l-1.6-1.5l-5.3,1.9l-4-0.3l-2.7-1.8l-1.6,0.5l-4.2-0.2l-1.9-1.4l-4.8-1.7
			l-1.4-0.2l-5-1.3l-1.8,1.5l-5.7-0.3l-4.8-3.8l0.2-0.8l0.1-7.9l-2.1-3.9l-4.1-0.7l-0.4-2.4l-2.5-0.6l-2.9-0.5l-1.8,1L97.6,61
			l0.3-2.9l2.7-0.3l1.6-4l-2.6-1.1l0.2-3.7l4.4-0.6l-2.7-2.7l-1.5-7.1l0.6-2.9v-7.9l-1.8-3.2l2.3-9.4l2.1,0.5l2.4,2.9l2.7,2.6
			l3.2,1.9l4.5,2.1l3.1,0.6l2.9,1.5l3.4,1l2.3-0.2v-2.4l1.3-1.1l2.1-1.3l0.3,1.1l0.3,1.8l-2.3,0.5l-0.3,2.1l1.8,1.5l1.1,2.4l0.6,1.9
			l1.5-0.2l0.2-1.3l-1-1.3l-0.5-3.2l0.8-1.8l-0.6-1.5v-2.3l1.8-3.6l-1.1-2.6l-2.4-4.8l0.3-0.8L132.8,10.3L132.8,10.3z M123.4,16.3
			l2-0.2l0.5,1.4l1.5-1.6h2.3l0.8,1.5l-1.5,1.7l0.6,0.8l-0.7,2l-1.4,0.4c0,0-0.9,0.1-0.9-0.2c0-0.3,1.5-2.6,1.5-2.6l-1.7-0.6
			l-0.3,1.5l-0.7,0.6l-1.5-2.3C123.9,18.8,123.4,16.3,123.4,16.3z"/>
		<path id="CA" fill="#BFBFBF" d="M176,390.7l3.8-0.5l1.5-2l0.7-1.9l-3.2-0.1l-1.1-1.8l0.8-1.7l0-6.2l2.2-1.3l2.7-2.6l0.4-4.9
			l1.6-3.5l1.9-2.1l3.3-1.7l1.3-0.7l0.8-1.5l-0.9-0.9l-1-1.5l-0.9-5.3l-2.9-5.2l0.1-2.8l-2.2-3.2l-15-23.2l-19.4-28.7l-22.4-33
			l-12.7-19.5l1.8-7.2l6.8-25.9l8.1-31.4l-12.4-3.3l-13.5-3.4l-12.6-4.1l-7.5-2.1l-11.4-3l-7.1-2.4l-1.6,4.7l-0.2,7.4l-5.2,11.8
			l-3.1,2.6l-0.3,1.1l-1.8,0.8l-1.5,4.2l-0.8,3.2l2.7,4.2l1.6,4.2l1.1,3.6l-0.3,6.5l-1.8,3.1l-0.6,5.8l-1,3.7l1.8,3.9l2.7,4.5
			l2.3,4.8l1.3,4l-0.3,3.2l-0.3,0.5v2.1l5.7,6.3l-0.5,2.4l-0.6,2.3l-0.6,1.9l0.2,8.2l2.1,3.7l1.9,2.6l2.7,0.5l1,2.7l-1.1,3.6
			l-2.1,1.6H70l-0.8,3.9l0.5,2.9l3.2,4.4l1.6,5.3l1.5,4.7l1.3,3.1l3.4,5.8l1.5,2.6l0.5,2.9l1.6,1v2.4l-0.8,1.9l-1.8,7.1l-0.5,1.9
			l2.4,2.7l4.2,0.5l4.5,1.8l3.9,2.1h2.9l2.9,3.1l2.6,4.8l1.1,2.3l3.9,2.1l4.8,0.8l1.5,2.1l0.6,3.2l-1.5,0.6l0.3,1l3.2,0.8l2.7,0.2
			l2.9,4.7l3.9,4.2l0.8,2.3l2.6,4.2l0.3,3.2v9.4l0.5,1.8l10,1.5l19.7,2.7L176,390.7L176,390.7z M88.1,341l1.3,1.5l-0.2,1.3l-3.2-0.1
			l-0.6-1.2l-0.6-1.5L88.1,341L88.1,341z M90,341l1.2-0.6l3.6,2.1l3.1,1.2l-0.9,0.6l-4.5-0.2l-1.6-1.6L90,341L90,341z M110.7,360.8
			l1.8,2.3l0.8,1l1.5,0.6l0.6-1.5l-1-1.8l-2.7-2l-1.1,0.2V360.8z M109.2,369.4l1.8,3.2l1.2,1.9l-1.5,0.2l-1.3-1.2
			c0,0-0.7-1.5-0.7-1.9s0-2.2,0-2.2L109.2,369.4L109.2,369.4z"/>
		<path id="OR" fill="#BFBFBF" d="M179.6,180.6l4.3-17.9l4.7-17.9l1.1-4.2l2.4-5.6l-0.6-1.2l-2.5,0l-1.3-1.7l0.5-1.5l0.5-3.2
			l4.5-5.5l1.8-1.1l1.1-1.1l1.5-3.6l4-5.7l3.6-3.9l0.2-3.5l-3.3-2.5l-1.2-4.5l-13.2-3.7l-15.1-3.5L157,89l-0.5-1.4l-5.5,2.1
			l-4.5-0.6l-2.4-1.6l-1.3,0.7l-4.7-0.2l-1.7-1.4l-5.3-2.1l-0.8,0.1l-4.3-1.5l-1.9,1.8l-6.2-0.3l-5.9-4.1l0.7-0.8l0.2-7.8l-2.3-3.9
			l-4.1-0.6l-0.7-2.5l-2.4-0.5l-5.8,2.1L95.5,73l-3.2,10L89,89.5l-5,14.1l-6.5,13.6l-8.1,12.6l-1.9,2.9l-0.8,8.6l-1.3,6l2.7,3.5
			l6.7,2.3l11.6,3.3l7.9,2.5l12.4,3.6l13.3,3.6l13.2,3.6"/>
		<path id="IL" fill="#BFBFBF" d="M657.1,305.5v-3.6l0.3-4.9l2.4-3.1l1.8-3.8l2.6-3.9l-0.4-5.3l-2-3.5l-0.1-3.3l0.7-5.3l-0.8-7.2
			l-1.1-15.8l-1.3-15l-0.9-11.6l-0.3-0.9l-0.8-2.6l-1.3-3.7l-1.6-1.8l-1.5-2.6l-0.2-5.5l-9.9,1.3l-27.2,1.7l-8.7-0.4l0.2,2.4
			l2.3,0.7l0.9,1.1l0.5,1.8l3.9,3.4l0.7,2.3l-0.7,3.4l-1.8,3.7l-0.7,2.5l-2.3,1.8l-1.8,0.7l-5.3,1.4l-0.7,1.8l-0.7,2.1l0.7,1.4
			l1.8,1.6l-0.2,4.1l-1.8,1.6l-0.7,1.6v2.7l-1.8,0.5l-1.6,1.1l-0.2,1.4l0.2,2.1l-1.7,1.3l-1,2.8l0.5,3.7l2.3,7.3l7.3,7.5l5.5,3.7
			l-0.2,4.3l0.9,1.4l6.4,0.5l2.7,1.4l-0.7,3.7l-2.3,5.9l-0.7,3.2l2.3,3.9l6.4,5.3l4.6,0.7l2.1,5l2.1,3.2l-0.9,3l1.6,4.1l1.8,2.1
			l1.9-0.8l0.7-2.2l2-1.4l3.2-1.1l3.1,1.2l2.9,1.1l0.8-0.2l-0.1-1.2l-1.1-2.8l0.4-2.4l2.3-1.6l2.4-1l1.2-0.4l-0.6-1.3l-0.8-2.2
			l1.2-1.3L657.1,305.5L657.1,305.5z"/>
		<path id="MN" fill="#BFBFBF" d="M511.2,132.4l-0.5-8.5l-1.8-7.3l-1.8-13.5l-0.5-9.8l-1.8-3.4l-1.6-5V74.5l0.7-3.9l-1.8-5.5l30.1,0
			l0.3-8.2l0.6-0.2l2.3,0.5l1.9,0.8l0.8,5.5l1.5,6.1l1.6,1.6h4.8l0.3,1.5l6.3,0.3v2.1h4.8l0.3-1.3l1.1-1.1l2.3-0.6l1.3,1h2.9
			l3.9,2.6l5.3,2.4l2.4,0.5l0.5-1l1.5-0.5l0.5,2.9l2.6,1.3l0.5-0.5l1.3,0.2v2.1l2.6,1h3.1l1.6-0.8l3.2-3.2l2.6-0.5l0.8,1.8l0.5,1.3
			h1l1-0.8l8.9-0.3l1.8,3.1h0.6l0.7-1.1l4.4-0.4l-0.6,2.3l-3.9,1.8l-9.2,4.1l-4.8,2L595,96l-2.4,3.6l-2.3,3.9l-1.8,0.8l-4.5,5
			l-1.3,0.2l-3.8,2.9l-2.8,3.2l-0.2,3l0.2,7.8l-1.6,1.6l-5.3,4.1l-1.8,5.7l2.5,3.6l0.5,2.5l-1.1,3l-0.2,3.7l0.5,7.1l3.4,4.1h3
			l2.5,2.3l3.2,1.4l3.7,5l7.1,5l1.8,2.1l0.2,5.5l-20.6,0.7l-60.2,0.5l-0.3-35.7l-0.5-3l-4.1-3.4l-1.1-1.8v-1.6l2.1-1.6l1.4-1.4
			L511.2,132.4L511.2,132.4z"/>
		<path id="WI" fill="#BFBFBF" d="M652.2,201.1l0.4-3l-1.6-4.5l-0.6-6.1l-1.1-2.4l1-3.1l0.8-2.9l1.5-2.6l-0.6-3.4l-0.6-3.6l0.5-1.8
			l1.9-2.4l0.2-2.7l-0.8-1.3l0.6-2.6l0.5-3.2l2.7-5.7l2.9-6.8l0.2-2.3l-0.3-1l-0.8,0.5l-4.2,6.3l-2.7,4l-1.9,1.8l-0.8,2.3l-1.5,0.8
			l-1.1,1.9l-1.5-0.3l-0.2-1.8l1.3-2.4l2.1-4.7l1.8-1.6l1.1-2.3l-1.6-0.9l-1.4-1.4l-1.6-10.3l-3.7-1.1l-1.4-2.3l-12.6-2.7l-2.5-1.1
			l-8.2-2.3l-8.2-1.1l-4.2-5.4l-0.5,1.3l-1.1-0.2l-0.6-1.1l-2.7-0.8l-1.1,0.2l-1.8,1l-1-0.6l0.6-1.9l1.9-3.1l1.1-1.1l-1.9-1.5
			l-2.1,0.8l-2.9,1.9l-7.4,3.2l-2.9,0.6l-2.9-0.5l-1-0.9l-2.1,2.8l-0.2,2.7v8.5l-1.1,1.6l-5.3,3.9l-2.3,5.9l0.5,0.2l2.5,2.1l0.7,3.2
			l-1.8,3.2v3.9l0.5,6.6l3,3h3.4l1.8,3.2l3.4,0.5l3.9,5.7l7.1,4.1l2.1,2.7l0.9,7.4l0.7,3.3l2.3,1.6l0.2,1.4l-2.1,3.4l0.2,3.2
			l2.5,3.9l2.5,1.1l3,0.5l1.3,1.4l9.2,0l26.1-1.5L652.2,201.1L652.2,201.1z"/>
		<path id="DC" fill="#BFBFBF" d="M841,257.8l-1.1-1.6l-1-0.8l1.1-1.6l2.2,1.5L841,257.8L841,257.8z"/>
		<path id="IA" fill="#BFBFBF" d="M605.9,205.5l0.2,1.9l2.3,1.1l1.1,1.3l0.3,1.3l3.9,3.2l0.7,2.2l-0.8,2.9l-1.5,3.5l-0.8,2.7
			l-2.2,1.6l-1.7,0.6l-5.5,1.5l-0.7,2.3l-0.8,2.3l0.6,1.4l1.7,1.7l0,3.7l-2.2,1.6l-0.5,1.5v2.5l-1.5,0.5l-1.7,1.4l-0.5,1.5l0.5,1.7
			l-1.4,1.2l-2.3-2.7l-1.5-2.6l-8.3,0.8l-10.2,0.6l-25,0.7l-13,0.2l-9.4,0.2l-1.3,0.1l-1.7-4.5l-0.2-6.6l-1.6-4.1l-0.7-5.3l-2.3-3.7
			l-0.9-4.8l-2.7-7.5l-1.1-5.4l-1.4-2.2l-1.6-2.7l1.8-4.3l1.4-5.7l-2.7-2.1l-0.5-2.7l0.9-2.5h1.7h11.5L574,185l19.9-0.7l1.9,2.7
			l1.8,2.6l0.5,0.8l-1.8,2.7l0.5,4.2l2.5,3.9l3,1.8l2.4,0.2L605.9,205.5L605.9,205.5z"/>
		<path id="NM" fill="#BFBFBF" d="M322,435l-0.7-6.1l8.6,0.5l29.5,3.1l28.4,1.4l2-22.3l3.7-55.9l1.1-19.4l2,0.3l0-11.1l-32.2-2.4
			l-36.9-4.4l-34.5-4.1l-4.2,30.8l-7,53.2l-3.8,26.9l-2,13.3l15.5,2l1.3-10l16.7,2.6L322,435L322,435z"/>
		<path id="TN" fill="#BFBFBF" d="M736.3,324.5l-51.9,5l-15.8,1.8l-4.6,0.5l-3.9,0v3.9l-8.4,0.5l-7,0.6l-11.1,0.1l-0.3,5.8l-2.1,6.3
			l-1,3l-1.3,4.4l-0.3,2.6l-4,2.3l1.5,3.6l-1,4.4l-1,0.8l7.3-0.2l24.1-1.9l5.3-0.2l8.1-0.5l27.8-2.6l10.2-0.8l8.4-1l8.4-1.1l4.8-0.8
			l-0.1-4.5l1.8-1.5l2.7-0.6l0.6-3.7l4.2-2.7l3.9-1.5l4.2-3.6l4.4-2.1l0.9-3.5l4.3-3.9l0.6-0.2c0,0,0,1.1,0.8,1.1s1.9,0.3,1.9,0.3
			l2.3-3.6l2.1-0.6l2.3,0.3l1.6-3.6l2.1-2.2l0.6-1l0.2-3.9l-1.5-0.3l-2.4,1.9l-7.9,0.2l-12,1.9L736.3,324.5L736.3,324.5z"/>
		<path id="WV" fill="#BFBFBF" d="M795.8,245.9l1.1,4.9l1.1,6.9l3.6-2.7l2.3-3.1l2.5-0.6l1.5-1.5l1.8-2.6l1.2,0.6l2.9-0.3l2.6-2.1
			l2-1.5l1.8-0.5l1.3,1l2.2,1.1l1.9,1.8l1.4,1.3l-0.1,4.7l-5.7-3.1l-4.5-1.8l-0.2,5.3L816,256l-1.6,2.7l-0.6,1.6l-3.1,2.4l-0.5,2.3
			l-3.4,0.3l-0.3,3.1l-1.1,5.5h-2.6l-1.3-0.8l-1.6-2.7l-1.8,0.2l-0.3,4.4l-2.1,6.6l-5,10.8l0.8,1.3l-0.2,2.7l-2.1,1.9l-1.5-0.3
			l-3.2,2.4l-2.6-1l-1.8,4.7c0,0-3.7,0.8-4.4,1s-2.4-1.3-2.4-1.3l-2.4,2.3l-2.6,0.6l-2.9-0.8l-1.3-1.3l-2.2-3l-3.1-2l-2.6-2.7
			l-2.9-3.7l-0.6-2.3l-2.6-1.5l-0.8-1.6l-0.2-5.3l2.2-0.1l1.9-0.8l0.2-2.7l1.6-1.5l0.2-5l1-3.9l1.3-0.6l1.3,1.1l0.5,1.8l1.8-1
			l0.5-1.6l-1.1-1.8v-2.4l1-1.3l2.3-3.4l1.3-1.5l2.1,0.5l2.3-1.6l3.1-3.4l2.3-3.9l0.3-5.7l0.5-5v-4.7l-1.1-3.1l1-1.5l1.3-1.3
			l3.5,19.8l4.6-0.8L795.8,245.9L795.8,245.9z"/>
		<path id="KY" fill="#BFBFBF" d="M761.1,301.7l-2.3,2.7l-4.2,3.6l-4.3,5.9l-1.8,1.8v2.1l-3.9,2.1l-5.7,3.4l-3.5,0.4l-51.9,4.9
			l-15.8,1.8l-4.6,0.5l-3.9,0L659,335l-8.2,0.1l-7,0.6l-10.4,0.2l1.9-0.2l2.2-1.8l2.1-1.1l0.2-3.2l0.9-1.8l-1.6-2.5l0.8-1.9l2.3-1.8
			l2.1-0.6l2.7,1.3l3.6,1.3l1.1-0.3l0.2-2.3l-1.3-2.4l0.3-2.3l1.9-1.5l2.6-0.6l1.6-0.6l-0.8-1.8l-0.6-1.9l1.1-0.8l1.1-3.3l3-1.7
			l5.8-1l3.6-0.5l1.5,1.9l1.8,0.8l1.8-3.2l2.9-1.5l1.9,1.6l0.8,1.1l2.1-0.5l-0.2-3.4l2.9-1.6l1.1-0.8l1.1,1.6h4.7l0.8-2.1l-0.3-2.3
			l2.9-3.6l4.7-3.9l0.5-4.5l2.7-0.3l3.9-1.8l2.7-1.9l-0.3-1.9l-1.5-1.5l0.6-2.2l4.1-0.2l2.4-0.8l2.9,1.6l1.6,4.4l5.8,0.3l1.8,1.8
			l2.1,0.2l2.4-1.5l3.1,0.5l1.3,1.5l2.7-2.6l1.8-1.3h1.6l0.6,2.7l1.8,1l2.4,2.2l0.2,5.5l0.8,1.6l2.6,1.5l0.6,2.3l2.9,3.7l2.6,2.7
			L761.1,301.7z"/>
		<path id="OH" fill="#BFBFBF" d="M770.7,198.9l-6.1,4.1l-3.9,2.3l-3.4,3.7l-4,3.9l-3.2,0.8l-2.9,0.5l-5.5,2.6l-2.1,0.2l-3.4-3.1
			l-5.2,0.6l-2.6-1.5l-2.4-1.4l-4.9,0.7l-10.2,1.6l-7.8,1.2l1.3,14.6l1.8,13.7l2.6,23.4l0.6,4.8l4.1-0.1l2.4-0.8l3.4,1.5l2.1,4.4
			l5.1,0l1.9,2.1l1.8-0.1l2.5-1.3l2.5,0.4l2,1.5l1.7-2.1l2.3-1.3l2.1-0.7l0.6,2.7l1.8,1l3.5,2.3l2.2-0.1l1.1-1.1l-0.1-1.4l1.6-1.5
			l0.2-5l1-3.9l1.5-1.4l1.5,0.9l0.8,1.2l1.2-0.2l-0.4-2.4l-0.6-0.6v-2.4l1-1.3l2.3-3.4l1.3-1.5l2.1,0.5l2.3-1.6l3.1-3.4l2.3-3.9
			l0.2-5.4l0.5-5v-4.7l-1.1-3.1l1-1.5l0.9-1l-1.4-9.8L770.7,198.9L770.7,198.9z"/>
		<path id="NV" fill="#BFBFBF" d="M179.9,181.5l21,4.5l9.7,1.9l9.3,1.8l6.6,1.6l-0.6,5.9l-3.5,17.3l-4.1,20l-1.9,9.7l-2.2,13.3
			L211,274l-3.5,15.7l-2,10.2l-2.5,16.8l-0.5,1.1l-1.1,2.5l-1.9-0.1l-1.1-2.7l-2.7-0.5l-1.4-1l-2,0.3l-0.9,0.7l-1.3,1.3l-0.4,7
			l-0.5,1.7l-0.4,12.1l-1.3,1.7l-1.9-2.3l-14.5-22.7l-19.4-29l-22.7-33.8l-12.4-18.6l1.6-6.6l7-25.9l7.9-31.3l33.6,8.1l13.7,3"/>
		<path id="MO" fill="#BFBFBF" d="M595.1,253.4l-2.5-3.1l-1.1-2.3l-7.8,0.7l-9.8,0.5l-25.4,0.9l-13.5,0.2l-7.9,0.1l-2.3,0.1l1.3,2.5
			l-0.2,2.3l2.5,3.9l3.1,4.1l3.1,2.7l2.3,0.2l1.4,0.9v3l-1.8,1.6l-0.5,2.3l2.1,3.4l2.5,3l2.5,1.8l1.4,11.7l-0.7,35.3l0.2,4.7
			l0.5,5.4l23.4-0.1l23.2-0.7l20.8-0.8l11.7-0.2l2.2,3.4l-0.7,3.3l-3.1,2.4l-0.6,1.8l5.4,0.5l3.9-0.7l1.7-5.5l0.7-5.9l2.3-2l1.7-1.5
			l2.1-1l0.1-2.9l0.6-1.7l-1-1.7l-2.7,0.1l-2.2-2.6l-1.4-4.2l0.8-2.5l-1.9-3.4l-1.8-4.6l-4.8-0.8l-7-5.6l-1.7-4.1l0.8-3.2l2.1-6.1
			l0.5-2.9l-1.9-1l-6.9-0.8l-1-1.7l-0.1-4.2l-5.5-3.4l-7-7.8l-2.3-7.3l-0.2-4.2L595.1,253.4L595.1,253.4z"/>
		<path id="AR" fill="#BFBFBF" d="M630.2,348.9l-3.8,0.9l-6.2-0.5l0.7-3l3.2-2.7l0.5-2.3l-1.8-3l-11,0.5l-20.8,0.9l-23.3,0.7
			l-23.3,0.5l1.6,6.9v8.2l1.4,11l0.2,37.8l2.3,1.9l3-1.4l2.7,1.1l0.4,10.3l22.9-0.1l18.9-0.8l10.1-0.2l1.1-2.1l-0.3-3.5l-1.8-3
			l1.6-1.5l-1.6-2.5l0.7-2.5l1.4-5.6l2.5-2.1l-0.7-2.3l3.7-5.4l2.7-1.4l-0.1-1.5l-0.3-1.8l2.9-5.6l2.4-1.3l0.4-3.4l1.8-1.2l0.9-4.2
			l-1.3-4l4-2.4l0.6-2l1.2-4.3L630.2,348.9L630.2,348.9z"/>
		<path id="LA" fill="#BFBFBF" d="M641.5,476.9l-1-2.6l-1.1-3.1l-3.3-3.5l0.9-6.8l-0.1-1.1l-1.3,0.3l-8.2,0.9l-25,0.5l-0.7-2.4
			l0.9-8.5l3.3-5.9l5-8.7l-0.6-2.4l1.3-0.7l0.5-2l-2.3-2.1l-0.1-1.9l-1.8-4.3l-0.5-5.9l-9.7,0.1l-19.2,0.9l-22.2,0l0,9.6l0.7,9.4
			l0.7,3.9l2.5,4.1l0.9,5l4.3,5.5l0.2,3.2l0.7,0.7l-0.7,8.5l-3,5l1.6,2.1l-0.7,2.5l-0.7,7.3l-1.4,3.2l0.1,3.6l4.7-1.5l8.1-0.3
			l10.3,3.6l6.5,1.1l3.7-1.5l3.2,1.1l3.2,1l0.8-2.1l-3.2-1.1l-2.6,0.5l-2.7-1.6c0,0,0.2-1.3,0.8-1.5c0.6-0.2,3.1-1,3.1-1l1.8,1.5
			l1.8-1l3.2,0.6l1.5,2.4l0.3,2.3l4.5,0.3l1.8,1.8l-0.8,1.6l-1.3,0.8l1.6,1.6l8.4,3.6l3.6-1.3l1-2.4l2.6-0.6l1.8-1.5l1.3,1l0.8,2.9
			l-2.3,0.8l0.6,0.6l3.4-1.3l2.3-3.4l0.8-0.5l-2.1-0.3l0.8-1.6l-0.2-1.5l2.1-0.5l1.1-1.3l0.6,0.8c0,0-0.2,3.1,0.6,3.1
			c0.8,0,4.2,0.6,4.2,0.6l4,1.9l1,1.5h2.9l1.1,1l2.3-3.1V497h-1.3l-3.4-2.7l-5.8-0.8l-3.2-2.3l1.1-2.7l2.3,0.3l0.2-0.6l-1.8-1v-0.5
			h3.2l1.8-3.1l-1.3-1.9l-0.3-2.7l-1.5,0.2l-1.9,2.1l-0.6,2.6l-3.1-0.6l-1-1.8l1.8-1.9l2-1.8L641.5,476.9L641.5,476.9z"/>
		<path id="NH" fill="#BFBFBF" d="M920.1,146.3l0.9-1.1l1.1-3.3l-2.5-0.9L919,138l-3.9-1.1l-0.3-2.7l-7.3-23.4l-4.6-14.5l-0.9,0
			l-0.6,1.6l-0.6-0.5l-1-1l-1.5,1.9l0,5l0.3,5.7l1.9,2.7v4l-3.7,5.1l-2.6,1.1v1.1l1.1,1.8v8.6l-0.8,9.2l-0.2,4.8l1,1.3l-0.2,4.5
			l-0.5,1.8l1.5,0.9l16.4-4.7l2.3-0.6l1.5-2.6L920.1,146.3L920.1,146.3z"/>
		<path id="GA" fill="#BFBFBF" d="M728.9,361.9l-4.8,0.8l-8.4,1.1l-8.6,0.9v2.2l0.2,2.1l0.6,3.4l3.4,7.9l2.4,9.9l1.5,6.1l1.6,4.8
			l1.5,7l2.1,6.3l2.6,3.4l0.5,3.4l1.9,0.8l0.2,2.1l-1.8,4.8l-0.5,3.2l-0.2,1.9l1.6,4.4l0.3,5.3l-0.8,2.4l0.6,0.8l1.5,0.8l0.6,3.4
			l2.6,3.9l1.5,1.5l7.9,0.2l10.8-0.6l21.5-1.3l5.4-0.7l4.6,0l0.2,2.9l2.6,0.8l0.3-4.4l-1.6-4.5l1.1-1.6l5.8,0.8l5,0.3l-0.8-6.3
			l2.3-10l1.5-4.2l-0.5-2.6l3.3-6.2l-0.5-1.4l-1.9,0.7l-2.6-1.3l-0.6-2.1l-1.3-3.6l-2.3-2.1l-2.6-0.6L787,404l-2.9-6.3l-4.2-1.9
			l-2.1-1.9l-1.3-2.6l-2.1-1.9l-2.3-1.3l-2.3-2.9l-3.1-2.3l-4.5-1.8l-0.5-1.5l-2.4-2.9l-0.5-1.5l-3.4-4.9l-3.4,0.2l-4.1-3l-1.3-1.3
			l-0.3-1.8l0.8-1.9l2.4-1.2l-1.1-1.2l0.1-0.3l-5.8,1l-7,0.8L728.9,361.9L728.9,361.9z"/>
		<path id="MT" fill="#BFBFBF" d="M395.9,126.2l0.6-11.2l2.3-24.8c0.5-5,1.1-8.5,1.4-15.4l0.9-14.6l-30.7-2.8l-29.3-3.6l-29.3-4
			l-32.3-5.3l-18.4-3.4l-32.7-6.9L224,55.6l3.4,7.5l-1.4,4.6l1.8,4.6l3.2,1.4l4.6,10.8l2.7,3.2l0.5,1.1l3.4,1.1l0.5,2.1l-7.1,17.6
			v2.5l2.5,3.2h0.9l4.8-3l0.7-1.1l1.6,0.7l-0.2,5.3l2.7,12.6l3,2.5l0.9,0.7l1.8,2.3l-0.5,3.4l0.7,3.4l1.1,0.9l2.3-2.3h2.7l3.2,1.6
			l2.5-0.9h4.1l3.7,1.6l2.7-0.5l0.5-3l3-0.7l1.4,1.4l0.5,3.2l1.8,1.4l1.5-11.6l20.7,3l28.2,4L351,142l31.4,3.5l11,1.5l1.1-15.4
			L395.9,126.2L395.9,126.2z"/>
		<path id="CO" fill="#BFBFBF" d="M417.9,260.7l1.4-21.3l-32.1-3.1l-24.5-2.7l-37.3-4.1l-20.7-2.5l-2.6,22.2l-3.2,22.4l-3.8,28
			l-1.5,11.1l-0.3,2.8l33.9,3.8l37.7,4.3l32,3.2l16.6,0.8"/>
	</g>
	<rect id="rect6415" x="397" y="125.7" fill="#BFBFBF" width="108.9" height="23.5"/>
	<rect id="rect6417" x="496.8" y="130.7" fill="#BFBFBF" width="13.7" height="2.5"/>
	<circle fill="#4AA1EB" cx="654.7" cy="204" r="15.3"/>
	<circle fill="#4AA1EB" cx="718.5" cy="194.2" r="15.3"/>
	<circle fill="#4AA1EB" cx="884.8" cy="198.1" r="15.3"/>
	<circle fill="#4AA1EB" cx="364.3" cy="267.6" r="15.3"/>
	<circle fill="#4AA1EB" cx="68.6" cy="262.6" r="15.3"/>
	<circle fill="#4AA1EB" cx="138.4" cy="40.5" r="15.3"/>
	<circle fill="#4AA1EB" cx="213.6" cy="385.3" r="15.3"/>
	<circle fill="#4AA1EB" cx="530.1" cy="492.5" r="15.3"/>
	<line fill="none" stroke="#000000" x1="153.7" y1="40.5" x2="167.4" y2="40.5"/>
	<line fill="none" stroke="#000000" x1="84" y1="262.6" x2="97.7" y2="262.6"/>
	<line fill="none" stroke="#000000" x1="229" y1="385.3" x2="242.7" y2="385.3"/>
	<line fill="none" stroke="#000000" x1="654.7" y1="234" x2="654.7" y2="220.3"/>
	<line fill="none" stroke="#000000" x1="733.6" y1="194.2" x2="747.3" y2="194.2"/>
	<line fill="none" stroke="#000000" x1="900.1" y1="198.1" x2="913.9" y2="198.1"/>
	<line fill="none" stroke="#000000" x1="545.4" y1="492.5" x2="559.1" y2="492.5"/>
	<line fill="none" stroke="#000000" x1="379.6" y1="267.6" x2="393.4" y2="267.6"/>
	<text transform="matrix(1 0 0 1 172.4396 44.2519)" font-family="'MyriadPro-Regular'" font-size="12">Seattle</text>
	<text transform="matrix(1 0 0 1 102.732 266.5625)" font-family="'MyriadPro-Regular'" font-size="12">San Francisco</text>
	<text transform="matrix(1 0 0 1 247.7293 388.6724)" font-family="'MyriadPro-Regular'" font-size="12">Arizona</text>
	<text transform="matrix(1 0 0 1 398.3614 271.6848)" font-family="'MyriadPro-Regular'" font-size="12">Denver</text>
	<text transform="matrix(1 0 0 1 564.1433 496.5854)" font-family="'MyriadPro-Regular'" font-size="12">Houston</text>
	<text transform="matrix(1 0 0 1 918.8744 201.9189)" font-family="'MyriadPro-Regular'" font-size="12">Manhattan</text>
	<text transform="matrix(1 0 0 1 752.319 197.9262)" font-family="'MyriadPro-Regular'" font-size="12">Detroit</text>
	<text transform="matrix(1 0 0 1 650.2736 247.2522)" font-family="'MyriadPro-Regular'" font-size="12">Chicago</text>
</g>
</svg>
